# xmcd
#
# Track frame offsets:
# 150
# 22970
# 36860
# 57795
# 82195
# 91422
# 105557
# 118827
# 128495
# 138770
# 152177
# 166352
# 180395
# 198812
# 208147
# 222305
#
# Disc length: 3264 seconds
#
#
# Revision: 0
# Processed by: cddbd v1.5.2PL0 Copyright (c) Steve Scherf et al.
# Submitted via: FreeRIP 2.951 
#
DISCID=d60cbe10
DTITLE=103rd Streedt Gospel Choir with Various Artists - Gospel Party 2
DYEAR=2000
DGENRE=Gospel
TTITLE0=Oh happy day (The Edwin Hawkins Singers)
TTITLE1=Down by the riverside
TTITLE2=Amazing Grace
TTITLE3=What can i give
TTITLE4=Old time religion
TTITLE5=I will follow him
TTITLE6=Tell it on the mountain
TTITLE7=The ways of the Lord
TTITLE8=He's my saviour
TTITLE9=One Love
TTITLE10=Let us sing
TTITLE11=Prayer for peace
TTITLE12=Kumbaya
TTITLE13=Roll Jordan roll
TTITLE14=I'll fly away
TTITLE15=Lord don't move that mountain
EXTD=
EXTT0=
EXTT1=
EXTT2=
EXTT3=
EXTT4=
EXTT5=
EXTT6=
EXTT7=
EXTT8=
EXTT9=
EXTT10=
EXTT11=
EXTT12=
EXTT13=
EXTT14=
EXTT15=
PLAYORDER=
